<svg width="39" height="130" viewBox="0 0 39 130" fill="#C9C9C9" xmlns="http://www.w3.org/2000/svg">
<path d="M38.783 63.84V66.2349L32.9721 66.6091C29.0982 66.9085 26.3966 68.0061 24.8675 69.9021C23.3893 71.7981 22.6502 74.2679 22.6502 77.3115C22.6502 81.2531 23.1344 84.9703 24.1029 88.4629C25.0714 91.9056 26.0143 95.2236 26.9319 98.4168C27.9003 101.56 28.3846 104.654 28.3846 107.697C28.3846 111.29 27.62 114.657 26.0908 117.801C24.6126 120.944 22.3188 123.539 19.2095 125.584C16.1512 127.68 12.2518 128.952 7.51133 129.401L1.24171 130L0.782959 127.979L5.37048 127.306C9.75412 126.657 12.838 124.911 14.622 122.067C16.457 119.223 17.3745 115.68 17.3745 111.439C17.3745 107.148 16.7883 102.608 15.616 97.8181C14.4436 93.0282 13.8574 87.8641 13.8574 82.3259C13.8574 77.8853 15.1317 73.9935 17.6803 70.6506C20.2799 67.2577 24.2558 65.1622 29.6079 64.3638V65.711C24.2558 64.8628 20.2799 62.7672 17.6803 59.4243C15.1317 56.0814 13.8574 52.1896 13.8574 47.749C13.8574 42.2107 14.4436 37.0466 15.616 32.2568C16.7883 27.4669 17.3745 22.9265 17.3745 18.6356C17.3745 14.3447 16.457 10.7772 14.622 7.93322C12.838 5.08924 9.75412 3.36788 5.37048 2.76914L0.782959 2.09557L1.24171 0L7.51133 0.598735C12.2518 1.09768 16.1512 2.39493 19.2095 4.4905C22.3188 6.53617 24.6126 9.10573 26.0908 12.1992C27.62 15.2927 28.3846 18.6605 28.3846 22.3028C28.3846 25.3464 27.9003 28.4648 26.9319 31.658C26.0143 34.8014 25.0714 38.1194 24.1029 41.612C23.1344 45.0547 22.6502 48.7469 22.6502 52.6885C22.6502 55.7321 23.3893 58.2268 24.8675 60.1727C26.3966 62.0687 29.0982 63.1664 32.9721 63.4658L38.783 63.84Z" fill="white"/>
</svg>
