<svg width="38" height="131" viewBox="0 0 38 131" fill="#C9C9C9" xmlns="http://www.w3.org/2000/svg">
<path d="M0 66.3096V63.9146L5.81086 63.5404C9.73575 63.2411 12.4373 62.1434 13.9155 60.2474C15.3937 58.3514 16.1328 55.8816 16.1328 52.8381C16.1328 48.8964 15.6486 45.2042 14.6801 41.7615C13.7116 38.2689 12.7431 34.926 11.7746 31.7327C10.8571 28.5395 10.3984 25.446 10.3984 22.4524C10.3984 18.8101 11.1375 15.4422 12.6157 12.3487C14.1449 9.20538 16.4641 6.61087 19.5734 4.5652C22.6828 2.46963 26.5822 1.19732 31.2716 0.748271L37.5412 0.149536L38 2.17027L33.4125 2.84384C29.0798 3.49247 25.996 5.23877 24.161 8.08276C22.326 10.8768 21.4084 14.4194 21.4084 18.7103C21.4084 23.0012 21.9946 27.5416 23.167 32.3315C24.3394 37.1213 24.9255 42.2854 24.9255 47.8237C24.9255 52.2643 23.6258 56.181 21.0262 59.5738C18.4775 62.9168 14.5272 64.9874 9.17505 65.7857V64.4385C14.5272 65.2368 18.4775 67.3324 21.0262 70.7252C23.6258 74.0682 24.9255 77.9599 24.9255 82.4005C24.9255 87.9388 24.3394 93.1029 23.167 97.8928C21.9946 102.683 21.4084 107.223 21.4084 111.514C21.4084 115.805 22.326 119.372 24.161 122.216C25.996 125.06 29.0798 126.782 33.4125 127.38L38 128.054L37.5412 130.15L31.2716 129.551C26.5822 129.052 22.6828 127.755 19.5734 125.659C16.4641 123.613 14.1449 121.019 12.6157 117.875C11.1375 114.782 10.3984 111.439 10.3984 107.847C10.3984 104.803 10.8571 101.71 11.7746 98.5663C12.7431 95.3731 13.7116 92.0302 14.6801 88.5376C15.6486 85.045 16.1328 81.3528 16.1328 77.461C16.1328 74.4174 15.3937 71.9477 13.9155 70.0517C12.4373 68.1058 9.73575 66.9832 5.81086 66.6838L0 66.3096Z" fill="white"/>
</svg>
